<svg viewBox="0 0 206 47" xmlns="http://www.w3.org/2000/svg" xmlns:xlink="http://www.w3.org/1999/xlink" width="206.000000" height="47.000000" fill="none">
	<rect id="logo" width="206.000000" height="47.000000" x="0.000000" y="0.000000" />
	<path id="Vector 4" d="M0 46.2894L18.7362 39.103L37.4712 46.2894L37.4712 7.18644L18.7362 0L0 7.18644L0 46.2894Z" fill="rgb(33,160,56)" fill-rule="evenodd" />
	<path id="Vector 5" d="M37.4712 7.18644L18.7362 0L0 7.18644L18.7362 14.3717L37.4712 7.18644Z" fill="rgb(25,99,37)" fill-rule="evenodd" />
	<path id="Vector 6" d="M6.72401 19.7657L18.7361 15.1587L18.7361 6.75487L6.72401 11.3619L6.72401 19.7657Z" fill="rgb(255,255,255)" fill-rule="evenodd" />
	<path id="Vector 7" d="M37.471 22.344L18.736 15.1587L18.736 6.75487L37.471 13.9401L37.471 22.344Z" fill="rgb(204,204,204)" fill-rule="evenodd" />
	<path id="Vector 8" d="M6.72401 36.0587L18.7361 31.4517L37.4711 38.6382L27.4956 42.464L18.7361 39.1034L16.6996 39.8845L6.72401 36.0587Z" fill="rgb(25,99,37)" fill-rule="evenodd" />
	<path id="Vector 9" d="M6.72401 19.7655L18.7361 15.1586L37.4711 22.3439L27.4956 26.1708L18.7361 22.8102L16.6996 23.5914L6.72401 19.7655Z" fill="rgb(25,99,37)" fill-rule="evenodd" />
	<path id="Vector 10" d="M6.72401 36.0587L18.7361 31.4518L18.7361 21.768L6.72401 26.3761L6.72401 36.0587Z" fill="rgb(255,255,255)" fill-rule="evenodd" />
	<path id="Vector 11" d="M37.471 38.6382L18.736 31.4518L18.736 21.768L37.471 28.9544L37.471 38.6382Z" fill="rgb(204,204,204)" fill-rule="evenodd" />
	<path id="Vector 12" d="M55.3471 27.1143L55.3471 24.0662L61.4994 24.0662L61.4994 21.6928L55.3471 21.6928L55.3471 18.8325L62.3119 18.8325L62.3119 16.3849L52.2995 16.3849L52.2995 29.5619L62.5577 29.5619L62.5577 27.1143L55.3471 27.1143Z" fill="rgb(26,26,26)" fill-rule="nonzero" />
	<path id="Vector 13" d="M76.7551 29.5619L71.8146 22.7474L76.4323 16.3849L73.1211 16.3849L70.1307 20.6578L67.0831 16.3849L63.6007 16.3849L68.2556 22.861L63.3526 29.5619L66.8745 29.5619L70.0166 24.9876L73.2156 29.5619L76.7551 29.5619Z" fill="rgb(26,26,26)" fill-rule="nonzero" />
	<path id="Vector 14" d="M83.5308 23.4439L81.032 23.4439L81.032 18.8696L83.5308 18.8696C85.4035 18.8696 86.3524 19.7168 86.3524 21.1666C86.3524 22.6164 85.4062 23.4439 83.5308 23.4439ZM83.702 16.3849L77.967 16.3849L77.967 29.5597L81.0338 29.5597L81.0338 25.9264L83.7038 25.9264C87.2433 25.9264 89.4593 24.1012 89.4593 21.1644C89.4593 18.2277 87.2415 16.3849 83.702 16.3849Z" fill="rgb(26,26,26)" fill-rule="nonzero" />
	<path id="Vector 15" d="M94.6806 27.1143L94.6806 24.0662L100.831 24.0662L100.831 21.6928L94.6806 21.6928L94.6806 18.8325L101.645 18.8325L101.645 16.3849L91.6334 16.3849L91.6334 29.5619L101.892 29.5619L101.892 27.1143L94.6806 27.1143Z" fill="rgb(26,26,26)" fill-rule="nonzero" />
	<path id="Vector 16" d="M112.719 21.1666C112.719 22.5967 111.772 23.4635 109.9 23.4635L107.401 23.4635L107.401 18.8696L109.9 18.8696C111.772 18.8696 112.719 19.7168 112.719 21.1666ZM116.069 29.5619L113.098 25.326C114.82 24.5924 115.824 23.1426 115.824 21.1666C115.824 18.2124 113.608 16.3849 110.068 16.3849L104.333 16.3849L104.333 29.5597L107.401 29.5597L107.401 25.8894L110.22 25.8894L112.776 29.5597L116.069 29.5597L116.069 29.5619Z" fill="rgb(26,26,26)" fill-rule="nonzero" />
	<path id="Vector 17" d="M120.801 29.5619L123.868 29.5619L123.868 18.8696L128.109 18.8696L128.109 16.3849L116.561 16.3849L116.561 18.8696L120.801 18.8696L120.801 29.5619Z" fill="rgb(26,26,26)" fill-rule="nonzero" />
	<path id="Vector 18" d="M144.064 26.6249C143.29 27.0398 142.512 27.1904 141.68 27.1904C139.144 27.1904 137.383 25.4393 137.383 22.9742C137.383 20.5091 139.144 18.758 141.717 18.758C143.061 18.758 144.179 19.2297 145.143 20.2449L147.113 18.437C145.826 16.9502 143.893 16.1598 141.566 16.1598C137.346 16.1598 134.278 19.0025 134.278 22.9742C134.278 26.9459 137.346 29.7887 141.509 29.7887C143.402 29.7887 145.408 29.2057 146.866 28.114L146.866 22.7689L144.064 22.7689L144.064 26.6271L144.064 26.6249Z" fill="rgb(26,26,26)" fill-rule="nonzero" />
	<path id="Vector 19" d="M158.09 21.1666C158.09 22.5967 157.144 23.4635 155.271 23.4635L152.773 23.4635L152.773 18.8696L155.271 18.8696C157.144 18.8696 158.09 19.7168 158.09 21.1666ZM161.441 29.5619L158.47 25.326C160.191 24.5924 161.195 23.1426 161.195 21.1666C161.195 18.2124 158.979 16.3849 155.44 16.3849L149.705 16.3849L149.705 29.5597L152.773 29.5597L152.773 25.8894L155.592 25.8894L158.147 29.5597L161.441 29.5597L161.441 29.5619Z" fill="rgb(26,26,26)" fill-rule="nonzero" />
	<path id="Vector 20" d="M170.035 27.1909C167.668 27.1909 165.89 25.4791 165.89 22.9747C165.89 20.4703 167.668 18.7584 170.035 18.7584C172.401 18.7584 174.181 20.4703 174.181 22.9747C174.181 25.4791 172.401 27.1909 170.035 27.1909ZM170.035 29.787C174.2 29.787 177.285 26.9071 177.285 22.9725C177.285 19.0379 174.2 16.158 170.035 16.158C165.869 16.158 162.785 19.0576 162.785 22.9725C162.785 26.8874 165.852 29.787 170.035 29.787Z" fill="rgb(26,26,26)" fill-rule="nonzero" />
	<path id="Vector 21" d="M185.479 29.7868C189.247 29.7868 191.48 27.6405 191.48 23.7627L191.48 16.3849L188.453 16.3849L188.453 23.6514C188.453 26.1558 187.374 27.1906 185.499 27.1906C183.624 27.1906 182.545 26.1558 182.545 23.6514L182.545 16.3849L179.479 16.3849L179.479 23.7627C179.479 27.6405 181.712 29.7868 185.479 29.7868Z" fill="rgb(26,26,26)" fill-rule="nonzero" />
	<path id="Vector 22" d="M200.074 23.4426L197.575 23.4426L197.575 18.8684L200.074 18.8684C201.947 18.8684 202.896 19.7155 202.896 21.1653C202.896 22.6152 201.95 23.4426 200.074 23.4426ZM200.243 16.3836L194.508 16.3836L194.508 29.5585L197.575 29.5585L197.575 25.9252L200.245 25.9252C203.785 25.9252 206 24.0998 206 21.1631C206 18.2264 203.785 16.3815 200.245 16.3815L200.243 16.3836Z" fill="rgb(26,26,26)" fill-rule="nonzero" />
</svg>
